<svg id="logo" xmlns="http://www.w3.org/2000/svg" width="33.282" height="37.633" viewBox="0 0 33.282 37.633">
  <defs>
    <style>
      .cls-1 {
        fill: #f2eff7;
      }
    </style>
  </defs>
  <path id="Path_3" data-name="Path 3" class="cls-1" d="M20.293,8.691a9.489,9.489,0,0,1,3.264-3.4A18.854,18.854,0,0,1,33.827,2.5,18.854,18.854,0,0,1,44.1,5.288a9.486,9.486,0,0,1,3.264,3.4,7.639,7.639,0,0,1,3.106,1.434A10.554,10.554,0,0,0,45.474,3.2,21.371,21.371,0,0,0,33.827,0,21.372,21.372,0,0,0,22.179,3.2a10.553,10.553,0,0,0-4.991,6.928A7.643,7.643,0,0,1,20.293,8.691Z" transform="translate(-17.186)"/>
  <path id="Path_4" data-name="Path 4" class="cls-1" d="M57.188,73.862c-.241-.286-1.376-.972-4.58-1.558a63.482,63.482,0,0,0-10.917-.846,63.481,63.481,0,0,0-10.917.846c-3.2.587-4.34,1.272-4.58,1.558.241.286,1.376.972,4.58,1.558a63.482,63.482,0,0,0,10.917.846,63.481,63.481,0,0,0,10.917-.846C55.811,74.834,56.947,74.149,57.188,73.862Z" transform="translate(-25.049 -62.404)"/>
  <path id="Path_5" data-name="Path 5" class="cls-1" d="M26.47,114.859c-.218-2.93-1.742-11.622-1.742-11.622-.958-.126-1.86-.271-2.689-.437-2.457-.491-4.055-1.093-4.868-1.847l1.958,20.56c.067,2.261,3.367,3.07,4.459,3.338a45.372,45.372,0,0,0,10.223.944,45.366,45.366,0,0,0,10.224-.944c1.092-.268,4.391-1.077,4.459-3.337l1.958-20.56c-.813.754-2.412,1.356-4.868,1.847a47.679,47.679,0,0,1-5.081.7v5.163a.816.816,0,1,1-1.628,0,1.252,1.252,0,1,0-2.5,0v4.133a.816.816,0,1,1-1.628,0v-4.07a1.252,1.252,0,0,0-2.5,0v4.07a.816.816,0,1,1-1.628,0,1.252,1.252,0,0,0-2.5,0v2.066a.858.858,0,0,1-.814.877A.891.891,0,0,1,26.47,114.859Z" transform="translate(-17.171 -88.161)"/>
</svg>
