<svg xmlns="http://www.w3.org/2000/svg" viewBox="0 0 118.948 105.956">
  <defs>
    <style>
      .cls-1 {
        fill: #4a4060;
      }

      .cls-2 {
        fill: #d7cfe7;
        font-size: 15px;
        font-family: SegoeUI-Bold, Segoe UI;
        font-weight: 700;
      }

      .cls-3, .cls-4 {
        stroke: none;
      }

      .cls-4 {
        fill: #4a4060;
      }
    </style>
  </defs>
  <g id="create_a_bucket" transform="translate(-174.056 -243.995)">
    <g id="Path_1" data-name="Path 1" class="cls-1" transform="translate(160.906 232)">
      <path class="cls-3" d="M 55.30237579345703 117.4512710571289 C 51.86189651489258 117.4512710571289 49.17223739624023 116.9255905151367 47.0797119140625 115.8441925048828 C 45.20889663696289 114.8773880004883 43.82563781738281 113.4598236083984 42.85086822509766 111.5104827880859 C 40.97248077392578 107.7540969848633 40.82342147827148 102.5587921142578 40.65082168579102 96.54311370849609 C 40.42785263061523 88.77183532714844 40.17514419555664 79.96368408203125 35.98366546630859 71.93746948242188 C 33.97206497192383 68.08745574951172 29.16412925720215 66.47179412841797 24.51448249816895 64.90933227539062 C 21.64862060546875 63.94629669189453 18.94169807434082 63.03665161132812 16.90603637695312 61.65663528442383 C 14.68472862243652 60.1507453918457 13.65014362335205 58.32014465332031 13.65014362335205 55.89559173583984 C 13.65014362335205 51.47308349609375 15.83526706695557 50.30261993408203 18.60174369812012 48.82074356079102 C 20.43192863464355 47.84040451049805 22.50631332397461 46.72925186157227 24.05812835693359 44.463623046875 C 25.52875900268555 42.31402206420898 26.91557502746582 40.18314361572266 28.25672912597656 38.12245178222656 C 30.57146644592285 34.56579208374023 32.75785064697266 31.20637512207031 35.11637496948242 28.13335990905762 C 37.75217437744141 24.69909858703613 40.2266960144043 22.11409759521484 42.90386581420898 19.99823760986328 C 49.38082122802734 14.87923717498779 57.26834487915039 12.49505233764648 67.72637176513672 12.49505233764648 C 80.78783416748047 12.49505233764648 93.80361938476562 14.78791332244873 104.3760986328125 18.95125198364258 C 109.9192962646484 21.13412857055664 114.6266021728516 23.76525115966797 118.3672485351562 26.77156066894531 C 122.3351898193359 29.96052932739258 125.1516342163086 33.52795791625977 126.7383880615234 37.37477493286133 C 128.0133209228516 40.45952987670898 127.6356506347656 44.87263488769531 127.1983413696289 49.98260498046875 C 126.9536361694336 52.84188461303711 126.7006072998047 55.79850006103516 126.7006072998047 58.87469863891602 C 126.7006072998047 68.20048522949219 128.2655334472656 71.60752105712891 129.9357604980469 72.58706665039062 C 127.283332824707 73.79380798339844 122.6403732299805 75.98823547363281 119.2454223632812 78.03814697265625 C 116.9284515380859 79.43792724609375 112.3672790527344 82.70463562011719 106.5926513671875 86.84042358398438 C 98.12506866455078 92.90486907958984 87.58688354492188 100.4522857666016 77.86666870117188 106.6350555419922 C 66.58317565917969 113.8121566772461 58.99145126342773 117.4512710571289 55.30237579345703 117.4512710571289 Z"/>
      <path class="cls-4" d="M 67.72637176513672 12.99504852294922 C 57.38686370849609 12.99504852294922 49.59785461425781 15.34500885009766 43.21389770507812 20.39049530029297 C 40.56999206542969 22.48007965087891 38.12299346923828 25.03716278076172 35.51302337646484 28.43778991699219 C 33.16631317138672 31.49539184570312 30.98508453369141 34.84690093994141 28.67577362060547 38.39518737792969 C 27.33308410644531 40.45826721191406 25.94466400146484 42.59157562255859 24.47063446044922 44.74616241455078 C 22.84989929199219 47.11241912841797 20.71840667724609 48.25415802001953 18.83783721923828 49.26149749755859 C 16.11640930175781 50.71923828125 14.150146484375 51.77246856689453 14.150146484375 55.89559173583984 C 14.150146484375 58.13926696777344 15.11500549316406 59.83837890625 17.18659973144531 61.24277496337891 C 19.16571044921875 62.58446502685547 21.8411865234375 63.48352813720703 24.67375946044922 64.43537139892578 C 29.41716003417969 66.02934265136719 34.32205200195312 67.67758941650391 36.42686462402344 71.70600891113281 C 40.67162322998047 79.83426666259766 40.92609405517578 88.70355987548828 41.15060424804688 96.52877807617188 C 41.32151031494141 102.4851760864258 41.46910095214844 107.6293182373047 43.29806518554688 111.2868499755859 C 44.22379302978516 113.1381149291992 45.53586578369141 114.483528137207 47.30926513671875 115.4000091552734 C 49.32913208007812 116.4438552856445 51.94369506835938 116.9512634277344 55.30237579345703 116.9512634277344 C 57.18577575683594 116.9512634277344 60.19938659667969 115.9343719482422 64.25952911376953 113.9288177490234 C 67.84914398193359 112.1556854248047 72.33695983886719 109.5597610473633 77.59831237792969 106.2131576538086 C 87.30693054199219 100.0377731323242 97.83891296386719 92.49480438232422 106.301513671875 86.43391418457031 C 112.0850219726562 82.29177856445312 116.653190612793 79.02006530761719 118.9869766235352 77.61013031005859 C 122.0978240966797 75.73175048828125 126.2435150146484 73.73577117919922 128.9703216552734 72.47923278808594 C 127.1303100585938 70.63294982910156 126.2006072998047 66.07921600341797 126.2006072998047 58.87469482421875 C 126.2006072998047 55.77714538574219 126.4545593261719 52.80971527099609 126.7001571655273 49.93997192382812 C 127.1319122314453 44.89505004882812 127.5047912597656 40.53810119628906 126.2761611938477 37.56543731689453 C 124.7218933105469 33.79736328125 121.9555740356445 30.29689788818359 118.0540313720703 27.16128540039062 C 114.3527145385742 24.18659210205078 109.6891479492188 21.58086395263672 104.1928863525391 19.41648101806641 C 93.67736053466797 15.27555847167969 80.72663879394531 12.99504852294922 67.72637176513672 12.99504852294922 M 67.72637176513672 11.99504852294922 C 93.36212921142578 11.99504852294922 120.4869918823242 20.907958984375 127.2006072998047 37.18411254882812 C 129.2450103759766 42.13056182861328 127.2006072998047 50.23805236816406 127.2006072998047 58.87469482421875 C 127.2006072998047 72.54899597167969 130.5617218017578 72.69097900390625 131.7154083251953 72.33689880371094 C 130.1058959960938 73.04714202880859 123.7762069702148 75.886474609375 119.5038681030273 78.46617126464844 C 110.5502319335938 83.87547302246094 67.02354431152344 117.9512634277344 55.30237579345703 117.9512634277344 C 31.38023376464844 117.9512634277344 46.08900451660156 92.3682861328125 35.54045104980469 72.16891479492188 C 31.25003814697266 63.95743560791016 13.150146484375 66.245849609375 13.150146484375 55.89559173583984 C 13.150146484375 48.04720306396484 19.923095703125 49.61588287353516 23.64560699462891 44.18106842041016 C 35.17714691162109 27.32554626464844 41.30236053466797 11.99504852294922 67.72637176513672 11.99504852294922 Z M 132.0985717773438 72.16891479492188 C 132.0985717773438 72.16891479492188 131.9544372558594 72.2635498046875 131.7154083251953 72.33689880371094 C 131.9625701904297 72.22784423828125 132.0985717773438 72.16891479492188 132.0985717773438 72.16891479492188 Z"/>
    </g>
    <text id="create_a_bucket-2" data-name="create
a bucket" class="cls-2" transform="translate(236 280)"><tspan x="-21.595" y="0">create</tspan><tspan x="-29.956" y="20">a bucket</tspan></text>
  </g>
</svg>
