<svg xmlns="http://www.w3.org/2000/svg" viewBox="0 0 390 148">
  <g id="ending_splash" data-name="ending splash" fill="#252030">
    <path d="M 389.5 147.5000152587891 L 0.5 147.5000152587891 L 0.5 2.854593276977539 C 1.293228387832642 4.920591831207275 2.585009098052979 8.055758476257324 4.431049823760986 11.85546207427979 C 7.537749767303467 18.24996185302734 12.898850440979 27.89926147460938 20.79635047912598 37.55481338500977 C 34.75970077514648 54.62636184692383 59.49114990234375 74.97646331787109 98.01544952392578 74.97646331787109 C 108.6399993896484 74.97646331787109 119.9226531982422 73.43096160888672 131.5501556396484 70.38286590576172 C 144.6398010253906 66.95146179199219 160.8855438232422 60.77031326293945 178.0850982666016 54.22626113891602 C 195.7330017089844 47.51161193847656 213.9817504882812 40.56836318969727 232.2646942138672 35.13626098632812 C 253.1204071044922 28.93981170654297 270.1900024414062 25.9276123046875 284.4487915039062 25.9276123046875 C 288.6203002929688 25.9276123046875 292.6146850585938 26.19036293029785 296.3211364746094 26.7086124420166 C 300.1875915527344 27.24921226501465 303.8611145019531 28.08456230163574 307.2395629882812 29.19146156311035 C 310.7496032714844 30.34151268005371 314.0487365722656 31.81986236572266 317.0452575683594 33.5854606628418 C 320.1502990722656 35.41496276855469 323.0246887207031 37.60846328735352 325.5887145996094 40.10496139526367 C 333.4717102050781 47.78046035766602 341.2590942382812 51.67226028442383 348.7346496582031 51.67226028442383 C 359.9509887695312 51.67226028442383 370.7330932617188 42.7343635559082 379.9152526855469 25.82476234436035 C 383.5180969238281 19.18981170654297 386.1983642578125 12.56081199645996 387.8122863769531 8.168111801147461 C 388.50927734375 6.271171092987061 389.0732116699219 4.615527629852295 389.5 3.308130264282227 L 389.5 147.5000152587891 Z" stroke="none"/>
    <path d="M 1 5.462371826171875 L 1 147.0000152587891 L 389 147.0000152587891 L 389 6.34197998046875 C 388.7792663574219 6.970230102539062 388.5398559570312 7.637771606445312 388.2816467285156 8.340560913085938 C 386.6619567871094 12.74880981445312 383.9718933105469 19.40196228027344 380.3546447753906 26.06330871582031 C 371.0796508789062 43.14395904541016 360.1455993652344 52.17226409912109 348.7346496582031 52.17226409912109 C 341.1242370605469 52.17226409912109 333.2194519042969 48.23276519775391 325.2398986816406 40.46316528320312 C 322.7047424316406 37.99475860595703 319.8627014160156 35.82585906982422 316.7926940917969 34.01670837402344 C 313.8275451660156 32.26936340332031 310.5620422363281 30.80591583251953 307.0869140625 29.66701507568359 C 303.737060546875 28.56916046142578 300.0932922363281 27.74046325683594 296.2569580078125 27.20386505126953 C 292.5739135742188 26.68875885009766 288.6034545898438 26.42755889892578 284.4559020996094 26.4276123046875 L 284.4488525390625 26.4276123046875 C 270.2391052246094 26.42861175537109 253.2162933349609 29.43446350097656 232.4076538085938 35.61691284179688 C 214.1428527832031 41.04356384277344 195.9031524658203 47.98296356201172 178.2640075683594 54.69390869140625 C 161.0511016845703 61.24266052246094 144.7928009033203 67.42826080322266 131.6769409179688 70.86650848388672 C 120.0079956054688 73.92546081542969 108.6826477050781 75.47646331787109 98.01544189453125 75.47646331787109 C 59.29525756835938 75.47646331787109 34.44110107421875 55.026611328125 20.40936279296875 37.87136077880859 C 12.48114013671875 28.17831420898438 7.099700927734375 18.49250793457031 3.981292724609375 12.07395935058594 C 2.740203857421875 9.519393920898438 1.754180908203125 7.281631469726562 1 5.462371826171875 M 0 1.52587890625e-05 C 0 1.52587890625e-05 23.81723022460938 74.47645568847656 98.01547241210938 74.47645568847656 C 108.1856079101562 74.47645568847656 119.291259765625 73.07957458496094 131.42333984375 69.89921569824219 C 170.5003814697266 59.65530395507812 236.2597198486328 25.43096160888672 284.4488220214844 25.42761993408203 C 300.9223022460938 25.42647552490234 315.3362426757812 29.42446899414062 325.9375 39.74671173095703 C 334.3214721679688 47.91002655029297 341.9332885742188 51.17228698730469 348.734619140625 51.17228698730469 C 375.6907348632812 51.17228698730469 390 1.52587890625e-05 390 1.52587890625e-05 L 390 148.0000152587891 L 0 148.0000152587891 L 0 1.52587890625e-05 Z" stroke="none" fill="#252030"/>
  </g>
</svg>
