<svg xmlns="http://www.w3.org/2000/svg"  viewBox="0 0 164.294 174.251">
  <path id="pouring_bucket" d="M162.6,106.922,117.134,58.954a92.717,92.717,0,0,0,.4-10.38c-.216-12.521-2.883-24.336-7.508-33.271C104.921,5.435,97.9,0,90.256,0l-.273,0C82.273.136,75.369,5.761,70.544,15.843,66.185,24.951,63.9,36.9,64.122,49.5c0,.17.011.338.015.508l-52.88,50.121a8.763,8.763,0,0,0-.332,12.389l55.922,59a8.763,8.763,0,0,0,12.389.332L132.97,120.92l22.969.791a8.764,8.764,0,0,0,6.661-14.788ZM90.134,8.765h.122c8.433,0,18.112,16.411,18.518,39.961.008.476.006.945.007,1.416l-15.166-16a8.764,8.764,0,0,0-12.389-.332L73.11,41.5C74.569,22.016,82.616,8.895,90.134,8.765Zm80.978,150.1A12.562,12.562,0,0,1,149.355,146.3l7.084-12.27a4.382,4.382,0,0,1,7.59,0l7.084,12.27A12.432,12.432,0,0,1,171.112,158.862Z" transform="translate(-8.521)" fill="#f2eff7" opacity="0.3"/>
</svg>
